<?xml version="1.0" standalone="no"?>
<!DOCTYPE svg PUBLIC "-//W3C//DTD SVG 20010904//EN"
 "http://www.w3.org/TR/2001/REC-SVG-20010904/DTD/svg10.dtd">
<svg version="1.0" xmlns="http://www.w3.org/2000/svg"
 width="690.000000pt" height="690.000000pt" viewBox="0 0 690.000000 690.000000"
 preserveAspectRatio="xMidYMid meet">
<metadata>
Created by potrace 1.16, written by Peter Selinger 2001-2019
</metadata>
<g transform="translate(0.000000,690.000000) scale(0.100000,-0.100000)"
fill="#000000" stroke="none">
<path d="M0 3450 l0 -3450 3450 0 3450 0 0 3450 0 3450 -3450 0 -3450 0 0
-3450z m1949 2778 c0 -79 -4 -264 -8 -412 -9 -314 -4 -301 -108 -292 -110 9
-103 -6 -102 239 1 117 4 298 8 402 l6 190 35 6 c19 4 65 7 103 8 l67 1 -1
-142z m1636 120 c64 -16 110 -44 154 -94 60 -69 88 -135 100 -239 12 -96 15
-463 5 -489 -5 -13 -22 -16 -81 -16 -121 0 -113 -20 -113 271 0 270 -3 290
-55 342 -23 22 -36 27 -79 27 -29 0 -57 5 -64 12 -17 17 -16 195 1 201 14 6
77 -1 132 -15z m-1375 -18 c86 -25 133 -62 167 -129 68 -137 4 -345 -156 -505
-71 -72 -167 -129 -209 -124 l-27 3 -3 113 -3 113 32 17 c86 47 125 79 147
122 43 85 16 138 -94 185 -40 17 -64 33 -65 44 -3 63 4 168 11 176 13 16 123
7 200 -15z m2791 24 l35 -6 -68 -206 c-38 -114 -91 -283 -119 -377 -28 -93
-58 -187 -66 -207 l-16 -38 -76 -1 c-81 -1 -124 1 -129 6 -7 7 20 80 69 185
26 58 55 130 63 160 33 128 77 270 116 376 l42 114 57 0 c31 0 72 -3 92 -6z
m-1599 -334 c2 -181 3 -372 3 -422 l0 -93 -93 -3 c-70 -3 -93 0 -97 10 -16 48
-35 804 -20 828 3 6 48 10 106 10 l99 0 2 -330z m958 320 c13 -8 10 -19 -19
-74 -49 -92 -71 -113 -128 -121 -74 -10 -256 -11 -272 -1 -11 7 -13 28 -8 97
3 49 8 93 12 99 8 13 395 13 415 0z m-1450 -33 c0 -12 -32 -87 -71 -167 -79
-161 -203 -448 -240 -554 -16 -45 -31 -71 -44 -76 -11 -4 -58 -4 -105 1 -47 4
-93 8 -102 8 -10 1 -18 6 -18 11 0 12 326 737 346 767 16 25 37 29 152 32 79
1 82 0 82 -22z m1689 17 c17 -4 31 -13 31 -20 0 -8 -22 -53 -48 -101 -74 -133
-249 -475 -256 -500 -7 -22 -6 -22 78 -16 70 5 86 3 87 -8 3 -56 -4 -146 -13
-156 -8 -10 -66 -13 -233 -13 -261 0 -288 3 -279 34 9 29 100 184 190 322 40
62 104 162 140 221 37 60 87 138 112 176 l45 67 57 0 c32 0 72 -3 89 -6z
m-1619 -249 c17 -66 59 -216 92 -333 33 -118 57 -220 54 -228 -7 -19 -189 -20
-204 -1 -12 15 -96 308 -113 394 -13 62 -13 62 24 135 52 104 97 172 107 162
4 -5 22 -63 40 -129z m2181 -71 c31 -87 84 -231 118 -318 33 -88 59 -161 58
-162 -1 -2 -52 -6 -113 -10 l-110 -7 -14 44 c-8 24 -42 116 -77 204 -35 88
-63 168 -63 178 0 17 27 71 97 195 14 24 30 41 36 39 6 -2 37 -75 68 -163z
m-3292 -660 c3 -3 7 -194 9 -425 l3 -418 -23 -6 c-13 -3 -59 -5 -103 -3 l-80
3 -4 40 c-4 46 18 759 25 792 2 12 14 24 27 27 27 5 138 -2 146 -10z m130 -9
c126 -30 239 -112 294 -214 39 -72 60 -218 61 -433 1 -133 -2 -180 -12 -190
-14 -14 -143 -18 -174 -5 -16 6 -18 24 -18 181 0 190 -9 254 -47 333 -33 66
-65 97 -128 120 l-50 19 -3 102 c-1 56 1 102 5 102 4 0 37 -7 72 -15z m3241 0
c0 -8 -30 -90 -66 -182 -36 -92 -102 -267 -146 -388 -44 -121 -86 -230 -94
-242 -13 -21 -22 -23 -104 -23 -49 0 -91 4 -94 8 -3 5 26 94 65 198 189 512
233 625 248 634 9 5 55 10 104 10 70 0 87 -3 87 -15z m-906 -17 c8 -13 27 -63
42 -113 37 -122 140 -402 203 -554 28 -68 51 -130 51 -137 0 -9 -25 -13 -89
-16 -49 -2 -95 -2 -104 0 -18 4 -32 35 -108 252 -34 96 -97 262 -140 368 -43
107 -75 200 -72 208 4 11 28 14 104 14 91 0 100 -2 113 -22z m536 9 c0 -8 -30
-99 -66 -203 -36 -104 -84 -251 -107 -327 -23 -76 -46 -139 -52 -139 -5 0 -30
39 -54 88 -32 64 -44 100 -43 129 1 41 85 305 127 400 l23 54 54 4 c113 7 118
7 118 -6z m-1160 -72 c0 -69 -2 -75 -22 -79 -13 -3 -124 -12 -248 -21 -124 -8
-257 -18 -296 -21 l-71 -7 -7 47 c-6 36 0 130 8 137 1 2 392 14 554 17 l82 2
0 -75z m336 -7 c-3 -46 -8 -229 -11 -408 -3 -179 -8 -335 -11 -347 -4 -22 -9
-23 -104 -23 l-100 0 0 430 0 430 116 0 116 0 -6 -82z m-1124 34 c3 -4 -27
-90 -68 -192 -41 -102 -104 -270 -139 -374 -36 -104 -72 -200 -80 -212 -14
-22 -22 -24 -98 -24 -113 0 -130 6 -122 39 22 91 299 751 323 769 13 10 37 12
97 7 44 -4 83 -10 87 -13z m2326 -129 c6 -10 13 -38 17 -63 4 -25 36 -134 71
-243 70 -221 101 -345 88 -357 -5 -4 -53 -11 -106 -15 -87 -6 -97 -5 -106 12
-22 41 -92 312 -92 354 0 60 90 329 111 329 4 0 12 -8 17 -17z m-1762 -65 c-3
-18 -8 -141 -11 -273 -3 -132 -9 -257 -12 -277 l-6 -38 -83 0 -84 0 1 208 c1
114 4 250 8 302 l6 95 40 6 c22 3 64 7 93 8 l53 1 -5 -32z m-469 -175 c96
-344 114 -415 108 -421 -10 -10 -189 -14 -204 -4 -10 7 -78 272 -102 398 -4
21 3 35 48 96 75 102 86 112 99 94 6 -8 29 -82 51 -163z m582 -583 c10 -5 45
-58 78 -117 146 -259 359 -502 608 -689 255 -192 606 -353 905 -414 165 -34
155 -24 152 -165 -2 -90 -6 -123 -17 -134 -12 -12 -38 -15 -124 -12 -119 2
-212 -14 -351 -65 -157 -56 -269 -124 -450 -273 -204 -168 -260 -198 -350
-186 -83 12 -128 39 -151 91 -52 117 35 231 228 299 149 53 278 105 311 125
63 39 97 132 68 188 -31 60 -172 175 -373 304 -106 68 -382 314 -489 435 -42
49 -100 121 -127 160 l-51 73 -31 -59 c-114 -213 -412 -501 -804 -777 -111
-79 -145 -126 -146 -204 0 -51 4 -62 28 -88 39 -41 159 -94 307 -137 207 -60
262 -92 305 -178 76 -154 -43 -276 -219 -223 -74 22 -169 85 -326 217 -80 66
-179 141 -220 165 -148 88 -307 134 -525 154 -177 16 -165 5 -165 159 0 115 2
131 18 140 10 5 62 17 117 26 249 42 453 123 670 268 393 262 662 537 785 802
20 44 45 87 54 95 27 21 253 38 285 20z m545 -20 c14 -5 42 -35 63 -67 103
-158 207 -264 364 -369 167 -112 378 -196 622 -247 65 -14 121 -28 125 -31 18
-18 29 -250 13 -275 -7 -11 -30 -13 -118 -8 -295 17 -517 91 -759 253 -234
156 -424 356 -553 582 -64 112 -71 139 -39 147 91 22 243 30 282 15z m520 -10
l92 0 79 -61 c126 -96 231 -141 399 -170 99 -17 106 -27 106 -149 0 -87 -3
-103 -20 -120 -11 -11 -27 -20 -35 -20 -71 0 -381 94 -497 150 -138 68 -288
197 -346 299 -43 76 -36 85 56 77 41 -3 116 -6 166 -6z m-2195 -9 c42 -27 -89
-219 -254 -372 -78 -72 -234 -173 -376 -244 -71 -36 -136 -65 -144 -65 -24 0
-30 35 -30 171 0 97 4 130 15 144 8 10 53 36 100 58 115 53 207 115 255 170
22 26 56 66 76 89 l36 41 94 7 c140 10 212 11 228 1z m539 -1 c22 0 13 -24
-53 -140 -231 -406 -613 -712 -1081 -870 -123 -41 -181 -49 -202 -28 -15 15
-17 224 -3 261 8 20 28 31 108 57 123 40 241 100 396 203 95 62 151 110 252
211 72 72 157 170 190 218 33 48 67 89 75 92 8 3 80 3 160 1 80 -3 151 -5 158
-5z m2292 -50 c0 -41 -4 -60 -12 -61 -46 -4 -94 7 -174 38 -173 68 -166 83 37
83 l149 0 0 -60z m-3447 34 c77 -5 107 -10 107 -20 0 -32 -177 -146 -247 -160
l-33 -6 0 95 c0 99 5 110 45 102 11 -2 68 -7 128 -11z m1574 -671 c5 -10 8
-457 8 -993 l0 -975 -70 -3 c-87 -4 -142 16 -189 68 -73 81 -68 200 11 259 27
20 28 20 5 21 -33 0 -75 -24 -106 -60 -21 -25 -26 -42 -26 -83 1 -142 107
-238 301 -272 45 -8 88 -20 95 -26 44 -37 -23 -125 -116 -153 -29 -9 -81 -16
-114 -16 -57 0 -59 -1 -43 -17 14 -14 36 -18 95 -19 115 -2 117 -2 146 -29 38
-35 37 -96 -3 -136 -16 -16 -40 -29 -53 -30 -40 -2 -92 2 -113 8 -13 4 2 -18
40 -59 105 -111 169 -276 163 -416 l-3 -67 -69 2 c-160 4 -404 68 -546 144
-196 106 -376 289 -488 499 -87 161 -126 289 -167 546 -32 202 -33 206 -47
198 -7 -4 -8 -34 -4 -88 19 -249 19 -249 -3 -283 -62 -98 -231 -76 -279 36
-10 23 -18 84 -22 169 l-6 132 -72 143 c-98 196 -116 265 -117 443 0 167 5
179 73 171 23 -2 46 -8 50 -11 3 -4 9 -67 13 -139 6 -120 10 -142 47 -242 53
-147 60 -161 87 -173 27 -12 41 -5 54 29 11 29 7 49 -35 189 -50 169 -36 318
35 354 28 15 58 8 79 -16 28 -34 44 -112 56 -283 16 -200 29 -251 95 -351 45
-69 107 -132 98 -99 -45 153 -58 205 -72 292 -22 129 -18 304 6 329 14 14 22
14 52 5 56 -19 145 -81 253 -176 230 -203 375 -265 504 -216 74 28 123 70 154
133 68 137 1 295 -157 369 -34 15 -118 39 -187 53 -161 32 -213 51 -255 91
-30 27 -35 39 -35 76 0 71 25 99 157 177 191 113 456 310 606 449 69 64 100
77 114 46z m298 -101 c141 -137 254 -224 460 -352 186 -115 202 -127 226 -166
38 -62 18 -124 -50 -159 -26 -12 -96 -34 -157 -48 -226 -53 -336 -115 -388
-218 -51 -103 -24 -242 59 -305 88 -67 195 -80 322 -39 125 39 220 103 423
285 109 97 128 110 166 110 55 0 59 -14 46 -173 -8 -97 -22 -188 -47 -285 -39
-158 -40 -166 -24 -156 22 13 128 185 143 231 8 27 29 133 46 237 35 215 43
236 103 236 23 0 31 -7 42 -34 13 -30 13 -50 -1 -153 -8 -65 -26 -171 -40
-237 -13 -65 -24 -132 -24 -148 0 -45 26 -98 48 -98 29 0 40 19 56 96 8 38 32
105 53 149 38 80 38 80 44 243 3 95 10 167 17 174 15 15 76 2 96 -21 23 -25
31 -137 17 -230 -14 -87 -39 -162 -109 -322 -50 -112 -56 -139 -81 -327 -15
-116 -70 -205 -148 -238 -66 -29 -117 -12 -151 49 -14 27 -17 59 -17 189 0 86
-3 159 -6 163 -4 3 -12 -34 -18 -82 -25 -195 -34 -242 -68 -343 -129 -391
-389 -699 -711 -840 -119 -53 -224 -79 -375 -92 -150 -14 -147 -16 -147 82 0
135 61 276 170 393 39 41 70 77 70 80 0 3 -23 -2 -52 -10 -70 -21 -115 -9
-142 36 -15 26 -17 40 -10 69 15 58 50 76 159 82 89 5 116 12 102 26 -3 3 -45
9 -94 13 -48 4 -102 15 -119 24 -46 24 -84 73 -84 108 0 63 23 78 150 99 181
30 254 95 253 226 -1 93 -34 143 -108 159 l-30 7 27 -26 c85 -82 79 -201 -14
-280 -21 -19 -60 -40 -86 -47 -56 -17 -157 -18 -172 -3 -6 6 -14 137 -20 345
-9 267 -8 407 4 689 10 230 13 452 9 630 -8 383 -6 386 182 202z m1622 -2028
c8 -21 -16 -250 -29 -279 -7 -15 -44 -39 -105 -69 -114 -56 -163 -88 -244
-163 -76 -70 -136 -149 -185 -239 -20 -38 -44 -75 -52 -81 -18 -15 -327 -19
-336 -5 -8 14 83 194 152 297 159 239 393 426 656 521 102 37 134 41 143 18z
m-3477 -111 c70 -20 188 -79 267 -135 91 -64 252 -208 360 -323 96 -102 197
-239 190 -259 -4 -13 -255 -21 -326 -11 -41 6 -56 18 -177 140 -155 156 -250
230 -376 294 l-93 46 -9 113 c-6 81 -5 121 3 139 11 23 15 25 59 18 26 -3 72
-13 102 -22z m3470 -466 c0 -41 -3 -115 -6 -165 -6 -81 -9 -91 -28 -96 -12 -3
-108 -8 -213 -12 -232 -8 -233 -7 -120 99 128 120 308 246 355 247 8 0 12 -21
12 -73z m-3522 -63 c63 -31 212 -168 212 -195 0 -18 -10 -19 -164 -19 l-163 0
-7 31 c-8 40 -8 172 0 193 9 24 63 20 122 -10z"/>
<path d="M4378 2621 c-58 -25 -138 -59 -176 -74 -113 -45 -170 -94 -155 -133
15 -39 106 3 253 115 41 32 101 75 133 96 31 21 57 39 57 41 0 2 -1 3 -2 3 -2
-1 -51 -22 -110 -48z"/>
<path d="M2610 2622 c13 -9 81 -57 150 -106 69 -49 145 -98 168 -109 82 -36
126 6 60 57 -18 13 -71 43 -118 65 -101 48 -296 118 -260 93z"/>
</g>
</svg>
